<svg xmlns="http://www.w3.org/2000/svg" viewBox="0 0 100 100" width="100%" height="100%">
  <rect x="5" y="5" width="90" height="90" rx="15" fill="#282a36" stroke="#6272a4" stroke-width="2"/>

  <rect x="15" y="15" width="70" height="70" rx="6" fill="#44475a" />

  <rect x="19" y="19" width="24" height="24" rx="4" fill="#ff79c6" />
  <rect x="25" y="25" width="12" height="12" rx="2" fill="#282a36" />
  <circle cx="31" cy="31" r="3" fill="#ff79c6" />

  <rect x="57" y="19" width="24" height="24" rx="4" fill="#50fa7b" />
  <rect x="63" y="25" width="12" height="12" rx="2" fill="#282a36" />
  <circle cx="69" cy="31" r="3" fill="#50fa7b" />

  <rect x="19" y="57" width="24" height="24" rx="4" fill="#f1fa8c" />
  <rect x="25" y="63" width="12" height="12" rx="2" fill="#282a36" />
  <circle cx="31" cy="69" r="3" fill="#f1fa8c" />

  <rect x="57" y="57" width="24" height="24" rx="4" fill="#8be9fd" />
  <rect x="63" y="63" width="12" height="12" rx="2" fill="#282a36" />
  <circle cx="69" cy="69" r="3" fill="#8be9fd" />

  <line x1="43" y1="15" x2="43" y2="85" stroke="#6272a4" stroke-width="1" stroke-dasharray="2,2" />
  <line x1="57" y1="15" x2="57" y2="85" stroke="#6272a4" stroke-width="1" stroke-dasharray="2,2" />
  <line x1="15" y1="43" x2="85" y2="43" stroke="#6272a4" stroke-width="1" stroke-dasharray="2,2" />
  <line x1="15" y1="57" x2="85" y2="57" stroke="#6272a4" stroke-width="1" stroke-dasharray="2,2" />

  <rect x="19" y="48" width="20" height="4" fill="#ff79c6" rx="1" />
  <rect x="48" y="19" width="4" height="20" fill="#50fa7b" rx="1" />
  <rect x="48" y="61" width="4" height="20" fill="#f1fa8c" rx="1" />
  <rect x="61" y="48" width="20" height="4" fill="#8be9fd" rx="1" />

  <rect x="41" y="41" width="18" height="18" rx="4" fill="#6272a4" stroke="#f8f8f2" stroke-width="1" />
  
  <path d="M 46 45 L 43 50 L 46 55" stroke="#f8f8f2" fill="none" stroke-width="1.5" stroke-linecap="round" stroke-linejoin="round"/>
  <path d="M 54 45 L 57 50 L 54 55" stroke="#f8f8f2" fill="none" stroke-width="1.5" stroke-linecap="round" stroke-linejoin="round"/>
  <path d="M 52 44 L 48 56" stroke="#ff79c6" fill="none" stroke-width="1.5" stroke-linecap="round" />
</svg>